<svg xmlns="http://www.w3.org/2000/svg" xml:space="preserve" width="880" height="720"><path d="M2424.17 4633.77s786.56 84.58 1319.39-245.27c532.83-329.85 422.88-778.1 422.88-778.1s-61.93-360.72-422.88-236.81c-283.33 97.26-160.69 431.33-160.69 431.33s-340.29-42.74-456.71-312.93c-112.07-260.07-118.41-600.49 228.35-913.42 0 0-845.76 177.61-820.39 1006.46 0 0 22.8 386.19 313.72 588.5 0 0-155.75-19.7-279.88-158.92 0 0-4.78 427.47-143.79 619.16M1443.7 1495.43h150.19v253.17h95.47l148.05-253.17h171.64l-166.28 275.7c84.75 33.25 142.68 102.98 142.68 213.48 0 170.57-122.3 240.3-271.41 240.3H1443.7Zm150.19 379.75v217.78h115.86c71.87 0 121.22-26.82 121.22-108.35 0-80.46-47.2-109.43-121.22-109.43zm558.8-379.75h497.76v131.95h-347.57v169.49h292.86v128.73h-292.86v167.36h332.55v131.95h-482.74zm668.75 0h224.21c225.28 0 384.05 149.11 384.05 364.74 0 215.62-159.84 364.74-384.05 364.74h-224.21zm150.19 131.95v465.58h66.51c161.99 0 236.01-96.55 236.01-232.79 0-136.25-74.02-232.79-236.01-232.79zm617.27-131.95h150.18v273.55h290.72v134.1h-290.72v189.88h319.69v131.95H3588.9Zm624.77 0h150.19v729.48h-150.19zm927.61-6.44h15.02v735.92h-140.53v-305.74c0-50.42 9.65-133.03 9.65-133.03s-50.42 66.52-85.82 99.77l-367.96 345.43h-15.02v-735.91h140.54v305.73c0 52.57-10.73 133.03-10.73 133.03s50.42-65.44 86.89-99.77l367.96-345.43M1572.65 764.512c80.64 0 139.46 44.949 139.46 118.968 0 67.418-38.33 104.43-113.02 137.48l-35.69 16.52c-50.23 23.13-71.38 40.98-71.38 80.63 0 38.34 27.1 64.11 71.38 64.11 42.3 0 66.09-21.15 83.28-48.9l38.33 23.79c-23.79 39.66-61.47 67.41-121.61 67.41-67.42 0-118.31-42.96-118.31-107.73 0-62.79 35.03-93.85 99.14-122.931l35.69-16.527c56.18-25.113 84.6-48.242 84.6-93.852 0-47.589-40.98-76.671-93.19-76.671-63.45 0-94.51 32.39-115.66 70.062l-39.66-21.152c23.79-47.59 70.72-91.207 156.64-91.207zm471.25 0c128.22 0 231.33 94.519 231.33 230.008 0 135.49-103.11 230-231.33 230-127.56 0-230.67-94.51-230.67-230 0-135.489 103.11-230.008 230.67-230.008zm0 42.957c-104.43 0-181.1 79.98-181.1 187.051 0 107.07 76.67 187.04 181.1 187.04 105.09 0 181.76-79.97 181.76-187.04 0-107.071-76.67-187.051-181.76-187.051zm361.53-37.668h259.75v42.301h-212.16v407.138h-47.59zm532.05-5.289c91.21 0 161.27 53.539 161.27 158.629v296.099h-47.59V926.441c0-79.972-44.28-119.632-113.68-119.632-70.06 0-113.68 39.66-113.68 119.632v292.799h-47.59V923.141c0-105.09 69.4-158.629 161.27-158.629zm411.76 5.289h47.58v407.139h138.14v42.3H3211.1v-42.3h138.14zm304.03 0h48.25v449.439h-48.25zm411.1-5.289c128.22 0 231.33 94.519 231.33 230.008 0 135.49-103.11 230-231.33 230-127.56 0-230.67-94.51-230.67-230 0-135.489 103.11-230.008 230.67-230.008zm0 42.957c-104.43 0-181.1 79.98-181.1 187.051 0 107.07 76.67 187.04 181.1 187.04 105.09 0 181.76-79.97 181.76-187.04 0-107.071-76.67-187.051-181.76-187.051zm701.91-42.297h7.93v454.068h-44.28V915.871c0-19.172 3.3-49.57 3.3-50.902-1.98 2.652-19.16 27.101-31.06 41.64l-268.34 317.251h-7.93V769.801h44.94v303.369c0 17.85-3.96 46.93-3.96 50.23 1.98-3.3 19.16-27.1 31.06-40.98zm278.25-.66c80.64 0 139.46 44.949 139.46 118.968 0 67.418-38.33 104.43-113.02 137.48l-35.69 16.52c-50.23 23.13-71.38 40.98-71.38 80.63 0 38.34 27.1 64.11 71.38 64.11 42.3 0 66.09-21.15 83.28-48.9l38.33 23.79c-23.79 39.66-61.47 67.41-121.61 67.41-67.42 0-118.31-42.96-118.31-107.73 0-62.79 35.03-93.85 99.14-122.931l35.69-16.527c56.18-25.113 84.6-48.242 84.6-93.852 0-47.589-40.98-76.671-93.19-76.671-63.45 0-94.51 32.39-115.66 70.062l-39.66-21.152c23.79-47.59 70.72-91.207 156.64-91.207" style="fill:#fff;fill-opacity:1;fill-rule:nonzero;stroke:none" transform="matrix(.13333 0 0 -.13333 0 720)"/></svg>